<?xml version="1.0" encoding="UTF-8"?>
<svg id="Layer_1" xmlns="http://www.w3.org/2000/svg" version="1.1" viewBox="0 0 1000 1000">
  <!-- Generator: Adobe Illustrator 29.1.0, SVG Export Plug-In . SVG Version: 2.1.0 Build 142)  -->
  <defs>
    <style>
      .st0 {
        fill: none;
      }

      .st1 {
        fill: #8bc9dd;
      }

      .st2 {
        fill: #44aed8;
      }

      .st3 {
        fill: #48aad6;
      }

      .st4 {
        fill: #2f6c9e;
      }
    </style>
  </defs>
  <g>
    <g>
      <polygon class="st0" points="422.17 364.73 421.58 364.73 421.89 364.28 422.17 364.73"/>
      <path class="st3" d="M442.22,499.49s0,.06-.04.06h-107.76l-.04-.08,25.12-38.83h62.11l20.6,38.86h.01Z"/>
      <path class="st1" d="M499.08,409.71s.01.04,0,.05l-24.43,38.6-7.77,12.27-24.58,38.83h-.1l-20.58-38.81v-.05l30.81-47.59s.01-.04,0-.05l-22.81-36.35-7.46-11.89-.29-.45c8.3-12.83,16.6-25.66,24.9-38.48h0l7.56,12.62,16.52,26.31,6.31,10.08,21.91,34.89v.02Z"/>
      <path class="st1" d="M389.38,414.46h0l-23.32,36.06-6.56,10.1-25.12,38.82h-.01l-20.65-38.82-.25-.49,29.75-45.98h0l-31.02-49.42-.14-.23v-.02l21.74-38.58h.01l24.36,38.82,8.4,13.38,22.81,36.35h0Z"/>
      <path class="st3" d="M421.58,364.73h-63.41l-24.36-38.82h0l112.87-.09s.05.04.03.06l-25.14,38.85"/>
    </g>
    <g>
      <polygon class="st0" points="591.32 364.73 590.72 364.73 591.03 364.28 591.32 364.73"/>
      <polygon class="st0" points="615.93 325.81 615.75 326.09 615.56 325.81 615.93 325.81"/>
      <polygon class="st3" points="611.4 499.55 526.52 499.55 550.82 460.64 590.76 460.64 611.4 499.55"/>
      <polygon class="st1" points="668.25 409.75 643.8 448.36 636.03 460.64 611.67 499.14 611.4 499.55 590.76 460.64 621.61 412.99 598.78 376.62 591.32 364.73 591.03 364.28 615.74 326.1 615.93 325.8 623.49 338.42 640.01 364.73 646.32 374.81 668.25 409.75"/>
      <polygon class="st0" points="615.93 325.81 615.75 326.09 615.56 325.81 615.93 325.81"/>
      <polygon class="st3" points="615.74 326.1 591.03 364.28 590.72 364.73 527.32 364.73 502.95 325.9 615.56 325.8 615.74 326.1"/>
      <polygon class="st4" points="556.75 451.15 550.82 460.64 526.52 499.55 474.22 499.55 498.53 460.64 528.75 412.23 556.75 451.15"/>
    </g>
  </g>
  <g>
    <path class="st1" d="M57.2,624.3c-1.7,0-3-.46-3.91-1.37s-1.37-2.21-1.37-3.91v-55.9c0-1.7.46-3,1.37-3.91s2.22-1.37,3.91-1.37h22.44c4.59,0,8.5.69,11.74,2.07s5.72,3.36,7.45,5.94c1.73,2.58,2.59,5.69,2.59,9.33,0,4.02-1.19,7.42-3.58,10.18-2.39,2.77-5.62,4.62-9.71,5.56v-1.41c4.65.63,8.3,2.37,10.93,5.23,2.64,2.86,3.96,6.58,3.96,11.17,0,5.91-1.95,10.45-5.84,13.62-3.9,3.17-9.36,4.76-16.4,4.76h-23.58ZM61.35,586.88h16.78c4.52,0,7.95-.91,10.27-2.73s3.49-4.49,3.49-8.01-1.16-6.19-3.49-8.01c-2.33-1.82-5.75-2.73-10.27-2.73h-16.78v21.49h0ZM61.35,616.76h18.29c4.71,0,8.2-.93,10.46-2.78,2.26-1.85,3.39-4.67,3.39-8.44s-1.13-6.57-3.39-8.39-5.75-2.73-10.46-2.73h-18.29v22.34Z"/>
    <path class="st1" d="M121.49,624.3c-1.7,0-3-.46-3.91-1.37s-1.37-2.21-1.37-3.91v-55.9c0-1.7.46-3,1.37-3.91s2.22-1.37,3.91-1.37h18.19c10.94,0,19.37,2.84,25.31,8.53s8.91,13.9,8.91,24.65c0,5.34-.75,10.09-2.26,14.23-1.51,4.15-3.72,7.62-6.65,10.42-2.92,2.8-6.49,4.93-10.7,6.41-4.21,1.48-9.08,2.21-14.61,2.21h-18.19ZM126.01,616.1h13.1c4.15,0,7.74-.52,10.79-1.56,3.05-1.04,5.61-2.59,7.68-4.67,2.07-2.07,3.61-4.68,4.62-7.82,1-3.14,1.51-6.82,1.51-11.03,0-8.36-2.06-14.61-6.17-18.76-4.12-4.15-10.26-6.22-18.43-6.22h-13.1v50.05h0Z"/>
    <path class="st3" d="M192.28,624.3c-1.7,0-3-.46-3.91-1.37s-1.37-2.21-1.37-3.91v-55.9c0-1.7.46-3,1.37-3.91.91-.91,2.22-1.37,3.91-1.37h22.44c4.59,0,8.5.69,11.74,2.07s5.72,3.36,7.45,5.94,2.59,5.69,2.59,9.33c0,4.02-1.19,7.42-3.58,10.18-2.39,2.77-5.62,4.62-9.71,5.56v-1.41c4.65.63,8.3,2.37,10.93,5.23,2.64,2.86,3.96,6.58,3.96,11.17,0,5.91-1.95,10.45-5.84,13.62-3.9,3.17-9.36,4.76-16.4,4.76h-23.58ZM196.43,586.88h16.78c4.52,0,7.95-.91,10.27-2.73s3.49-4.49,3.49-8.01-1.16-6.19-3.49-8.01-5.75-2.73-10.27-2.73h-16.78v21.49h0ZM196.43,616.76h18.29c4.71,0,8.2-.93,10.46-2.78,2.26-1.85,3.39-4.67,3.39-8.44s-1.13-6.57-3.39-8.39-5.75-2.73-10.46-2.73h-18.29v22.34Z"/>
    <path class="st3" d="M256.19,624.96c-1.57,0-2.78-.44-3.63-1.32s-1.27-2.1-1.27-3.68v-57.79c0-1.63.42-2.88,1.27-3.72.85-.85,2.06-1.27,3.63-1.27s2.78.42,3.63,1.27c.85.85,1.27,2.09,1.27,3.72v57.79c0,1.57-.41,2.8-1.23,3.68s-2.04,1.32-3.68,1.32h.01Z"/>
    <path class="st3" d="M305.4,625.15c-6.28,0-11.77-1.4-16.45-4.2-4.68-2.79-8.3-6.75-10.84-11.88-2.55-5.12-3.82-11.14-3.82-18.05,0-5.22.72-9.91,2.17-14.09,1.45-4.18,3.52-7.76,6.22-10.75,2.7-2.98,5.97-5.26,9.8-6.83s8.14-2.36,12.91-2.36c6.35,0,11.85,1.38,16.5,4.15s8.25,6.69,10.79,11.78,3.82,11.09,3.82,18c0,5.22-.72,9.93-2.17,14.14s-3.53,7.82-6.27,10.84c-2.73,3.02-6.02,5.31-9.85,6.88-3.83,1.57-8.11,2.36-12.82,2.36h.01ZM305.4,616.67c4.4,0,8.15-1,11.27-3.02,3.11-2.01,5.5-4.93,7.16-8.77,1.66-3.83,2.5-8.45,2.5-13.86,0-8.11-1.82-14.39-5.47-18.85-3.65-4.46-8.8-6.69-15.46-6.69-4.4,0-8.15.99-11.26,2.97-3.11,1.98-5.5,4.89-7.16,8.72-1.67,3.83-2.5,8.45-2.5,13.86,0,8.04,1.84,14.33,5.51,18.85,3.68,4.53,8.81,6.79,15.41,6.79h0Z"/>
    <path class="st4" d="M354.89,624.3c-1.7,0-3-.46-3.91-1.37s-1.37-2.21-1.37-3.91v-55.9c0-1.7.46-3,1.37-3.91s2.22-1.37,3.91-1.37h18.19c10.94,0,19.37,2.84,25.31,8.53s8.91,13.9,8.91,24.65c0,5.34-.75,10.09-2.26,14.23-1.51,4.15-3.72,7.62-6.65,10.42-2.92,2.8-6.49,4.93-10.7,6.41-4.21,1.48-9.08,2.21-14.61,2.21h-18.19ZM359.41,616.1h13.1c4.15,0,7.74-.52,10.79-1.56,3.05-1.04,5.61-2.59,7.68-4.67,2.07-2.07,3.61-4.68,4.62-7.82,1-3.14,1.51-6.82,1.51-11.03,0-8.36-2.06-14.61-6.17-18.76-4.12-4.15-10.26-6.22-18.43-6.22h-13.1v50.05h0Z"/>
    <path class="st4" d="M425.3,624.96c-1.57,0-2.78-.44-3.63-1.32s-1.27-2.1-1.27-3.68v-57.79c0-1.63.42-2.88,1.27-3.72.85-.85,2.06-1.27,3.63-1.27s2.78.42,3.63,1.27c.85.85,1.27,2.09,1.27,3.72v57.79c0,1.57-.41,2.8-1.23,3.68s-2.04,1.32-3.68,1.32h.01Z"/>
    <path class="st4" d="M476.77,625.15c-7.23,0-13.32-1.37-18.29-4.1s-8.72-6.65-11.26-11.74c-2.55-5.09-3.82-11.15-3.82-18.19,0-5.28.74-10.01,2.22-14.19s3.61-7.76,6.41-10.75c2.8-2.98,6.22-5.26,10.27-6.83s8.66-2.36,13.81-2.36c3.77,0,7.48.49,11.12,1.46,3.64.98,6.98,2.56,9.99,4.76.88.63,1.44,1.35,1.7,2.17.25.82.27,1.65.05,2.5s-.63,1.59-1.23,2.22c-.6.63-1.32,1.01-2.17,1.13-.85.13-1.78-.12-2.78-.75-2.45-1.7-5.03-2.94-7.73-3.72-2.7-.79-5.69-1.18-8.96-1.18-4.9,0-9.03,1.01-12.4,3.02-3.36,2.01-5.89,4.92-7.59,8.72-1.7,3.8-2.55,8.41-2.55,13.81,0,8.36,1.98,14.71,5.94,19.04,3.96,4.34,9.83,6.5,17.63,6.5,2.83,0,5.61-.27,8.34-.8,2.73-.53,5.36-1.3,7.87-2.31l-1.98,4.9v-21.96h-12.16c-1.26,0-2.25-.33-2.97-.99s-1.08-1.59-1.08-2.78.36-2.09,1.08-2.69,1.71-.9,2.97-.9h16.31c1.32,0,2.32.35,3.02,1.04.69.69,1.04,1.7,1.04,3.02v23.75c0,1.13-.2,2.09-.61,2.88-.41.79-1.08,1.37-2.03,1.74-2.7,1.07-5.88,1.93-9.52,2.59-3.65.66-7.2.99-10.65.99h.01Z"/>
    <path class="st4" d="M519.47,624.96c-1.57,0-2.78-.44-3.63-1.32s-1.27-2.1-1.27-3.68v-57.12c0-1.63.44-2.88,1.32-3.72.88-.85,2.1-1.27,3.68-1.27h22.53c7.16,0,12.69,1.7,16.59,5.09s5.84,8.2,5.84,14.42c0,4.02-.88,7.48-2.64,10.37s-4.32,5.09-7.68,6.6c-3.36,1.51-7.4,2.26-12.11,2.26l.85-1.32h2.45c2.51,0,4.7.63,6.55,1.89s3.54,3.27,5.04,6.03l8.11,15.08c.63,1.13.93,2.22.9,3.25-.03,1.04-.41,1.87-1.13,2.5-.72.63-1.74.94-3.06.94s-2.5-.3-3.35-.9-1.62-1.49-2.31-2.69l-9.9-18.29c-1.32-2.45-2.83-4.1-4.53-4.95-1.7-.85-3.93-1.27-6.69-1.27h-10.65v23.1c0,1.57-.41,2.8-1.23,3.68s-2.04,1.32-3.68,1.32ZM524.37,589.52h16.12c4.78,0,8.39-1,10.84-3.02,2.45-2.01,3.68-5,3.68-8.96s-1.23-6.85-3.68-8.86-6.07-3.02-10.84-3.02h-16.12v23.85h0Z"/>
    <path class="st4" d="M583.67,624.3c-1.7,0-3-.46-3.91-1.37s-1.37-2.21-1.37-3.91v-55.9c0-1.7.46-3,1.37-3.91s2.21-1.37,3.91-1.37h34.41c1.32,0,2.32.33,3.02.99.69.66,1.04,1.62,1.04,2.88s-.35,2.33-1.04,3.02-1.7,1.04-3.02,1.04h-30.26v20.83h28.19c1.38,0,2.4.35,3.06,1.04s.99,1.67.99,2.92c0,1.32-.33,2.31-.99,2.97s-1.68.99-3.06.99h-28.19v21.87h30.26c1.32,0,2.32.35,3.02,1.04.69.69,1.04,1.67,1.04,2.92,0,1.32-.35,2.31-1.04,2.97s-1.7.99-3.02.99h-34.41Z"/>
    <path class="st2" d="M655.12,625.15c-2.89,0-5.72-.22-8.48-.66-2.77-.44-5.37-1.12-7.82-2.03-2.45-.91-4.65-2.03-6.6-3.35-.94-.69-1.59-1.48-1.93-2.36-.35-.88-.44-1.74-.28-2.59.16-.85.52-1.59,1.08-2.21.57-.63,1.26-1.02,2.07-1.18.82-.16,1.73.11,2.73.8,2.83,1.82,5.81,3.16,8.96,4.01,3.14.85,6.57,1.27,10.27,1.27,5.34,0,9.29-.96,11.83-2.88,2.55-1.92,3.82-4.41,3.82-7.49,0-2.51-.91-4.51-2.73-5.99s-4.87-2.65-9.14-3.54l-10.09-2.07c-5.97-1.26-10.42-3.33-13.34-6.22-2.92-2.89-4.38-6.79-4.38-11.69,0-2.95.61-5.66,1.84-8.11,1.23-2.45,2.94-4.57,5.14-6.36s4.84-3.16,7.92-4.1c3.08-.94,6.44-1.41,10.09-1.41,3.9,0,7.56.5,10.98,1.51s6.49,2.54,9.19,4.62c.82.57,1.37,1.27,1.65,2.12s.34,1.68.19,2.5c-.16.82-.52,1.51-1.08,2.07s-1.29.9-2.17.99c-.88.09-1.85-.2-2.92-.9-2.45-1.63-4.95-2.81-7.49-3.54-2.54-.72-5.36-1.08-8.44-1.08s-5.77.47-8.06,1.41-4.05,2.26-5.28,3.96c-1.23,1.7-1.84,3.71-1.84,6.03,0,2.64.85,4.75,2.54,6.32,1.7,1.57,4.53,2.77,8.48,3.58l9.99,2.07c6.28,1.32,10.97,3.36,14.04,6.13,3.08,2.77,4.62,6.44,4.62,11.03,0,2.95-.6,5.61-1.79,7.96-1.19,2.36-2.89,4.38-5.09,6.08s-4.85,3-7.97,3.91c-3.11.91-6.61,1.37-10.51,1.37v.02Z"/>
    <path class="st2" d="M713.75,625.15c-2.89,0-5.72-.22-8.48-.66-2.77-.44-5.37-1.12-7.82-2.03-2.45-.91-4.65-2.03-6.6-3.35-.94-.69-1.59-1.48-1.93-2.36-.35-.88-.44-1.74-.28-2.59.16-.85.52-1.59,1.08-2.21.57-.63,1.26-1.02,2.07-1.18.82-.16,1.73.11,2.73.8,2.83,1.82,5.81,3.16,8.96,4.01,3.14.85,6.57,1.27,10.27,1.27,5.34,0,9.29-.96,11.83-2.88,2.55-1.92,3.82-4.41,3.82-7.49,0-2.51-.91-4.51-2.73-5.99s-4.87-2.65-9.14-3.54l-10.09-2.07c-5.97-1.26-10.42-3.33-13.34-6.22-2.92-2.89-4.38-6.79-4.38-11.69,0-2.95.61-5.66,1.84-8.11,1.23-2.45,2.94-4.57,5.14-6.36s4.84-3.16,7.92-4.1c3.08-.94,6.44-1.41,10.09-1.41,3.9,0,7.56.5,10.98,1.51s6.49,2.54,9.19,4.62c.82.57,1.37,1.27,1.65,2.12s.34,1.68.19,2.5c-.16.82-.52,1.51-1.08,2.07s-1.29.9-2.17.99c-.88.09-1.85-.2-2.92-.9-2.45-1.63-4.95-2.81-7.49-3.54-2.54-.72-5.36-1.08-8.44-1.08s-5.77.47-8.06,1.41-4.05,2.26-5.28,3.96c-1.23,1.7-1.84,3.71-1.84,6.03,0,2.64.85,4.75,2.54,6.32,1.7,1.57,4.53,2.77,8.48,3.58l9.99,2.07c6.28,1.32,10.97,3.36,14.04,6.13,3.08,2.77,4.62,6.44,4.62,11.03,0,2.95-.6,5.61-1.79,7.96-1.19,2.36-2.89,4.38-5.09,6.08s-4.85,3-7.97,3.91c-3.11.91-6.61,1.37-10.51,1.37v.02Z"/>
    <path class="st2" d="M755.13,624.96c-1.57,0-2.78-.44-3.63-1.32s-1.27-2.1-1.27-3.68v-57.79c0-1.63.42-2.88,1.27-3.72.85-.85,2.06-1.27,3.63-1.27s2.78.42,3.63,1.27,1.27,2.09,1.27,3.72v57.79c0,1.57-.41,2.8-1.23,3.68s-2.04,1.32-3.68,1.32h0Z"/>
    <path class="st2" d="M804.34,625.15c-6.29,0-11.77-1.4-16.45-4.2-4.68-2.79-8.3-6.75-10.84-11.88-2.54-5.12-3.82-11.14-3.82-18.05,0-5.22.72-9.91,2.17-14.09,1.44-4.18,3.52-7.76,6.22-10.75,2.7-2.98,5.97-5.26,9.8-6.83s8.14-2.36,12.92-2.36c6.35,0,11.84,1.38,16.5,4.15,4.65,2.77,8.25,6.69,10.79,11.78,2.55,5.09,3.82,11.09,3.82,18,0,5.22-.72,9.93-2.17,14.14s-3.54,7.82-6.27,10.84c-2.73,3.02-6.02,5.31-9.85,6.88-3.83,1.57-8.11,2.36-12.82,2.36h0ZM804.34,616.67c4.4,0,8.15-1,11.26-3.02,3.11-2.01,5.5-4.93,7.16-8.77,1.66-3.83,2.5-8.45,2.5-13.86,0-8.11-1.82-14.39-5.47-18.85-3.65-4.46-8.8-6.69-15.46-6.69-4.4,0-8.15.99-11.26,2.97s-5.5,4.89-7.16,8.72c-1.67,3.83-2.5,8.45-2.5,13.86,0,8.04,1.84,14.33,5.51,18.85,3.68,4.53,8.81,6.79,15.41,6.79h.01Z"/>
    <path class="st2" d="M853.17,624.96c-1.45,0-2.58-.41-3.39-1.23-.82-.82-1.23-1.98-1.23-3.49v-58.16c0-1.57.39-2.78,1.18-3.63s1.84-1.27,3.16-1.27c1.13,0,1.99.21,2.59.61.6.41,1.3,1.15,2.12,2.21l38.84,51.19h-2.36v-49.4c0-1.44.39-2.58,1.18-3.39.79-.82,1.9-1.23,3.35-1.23s2.64.41,3.39,1.23,1.13,1.95,1.13,3.39v58.54c0,1.45-.36,2.58-1.08,3.39-.72.82-1.68,1.23-2.88,1.23s-2.06-.22-2.78-.66c-.72-.44-1.49-1.19-2.31-2.26l-38.65-51.09h2.17v49.3c0,1.51-.38,2.67-1.13,3.49s-1.85,1.23-3.3,1.23h0Z"/>
    <path class="st2" d="M923.49,624.96c-1.57,0-2.78-.44-3.63-1.32s-1.27-2.1-1.27-3.68v-57.79c0-1.63.42-2.88,1.27-3.72.85-.85,2.06-1.27,3.63-1.27s2.78.42,3.63,1.27,1.27,2.09,1.27,3.72v57.79c0,1.57-.41,2.8-1.23,3.68s-2.04,1.32-3.68,1.32h0Z"/>
  </g>
</svg>